<!--<svg xmlns="http://www.w3.org/2000/svg" viewBox="0 0 10 10"><title>GameObject</title><g id="Skin_1"><polygon points="6.913 0 6.913 7.172 3.087 7.172 3.087 0 0 0 0 10 10 10 10 0 6.913 0" style="fill:#006915"/><polygon points="6.913 7.172 6.913 0 5.956 0 5.956 3.586 4.044 3.586 4.044 0 3.087 0 3.087 7.172 6.913 7.172" style="fill:#76281d"/><rect x="4.04371" width="1.91257" height="3.58607" style="fill:#cf7453"/><rect id="Container" width="10" height="10" style="fill:none"/></g><g id="Skin_2"><polygon points="6.913 0 6.913 7.172 3.087 7.172 3.087 0 0 0 0 10 10 10 10 0 6.913 0" style="fill:#45002a"/><polygon points="6.913 7.172 6.913 0 5.956 0 5.956 3.586 4.044 3.586 4.044 0 3.087 0 3.087 7.172 6.913 7.172" style="fill:#926c1d"/><rect x="4.04371" width="1.91257" height="3.58607" style="fill:#0f1592"/><rect id="Container-2" data-name="Container" width="10" height="10" style="fill:none"/></g><g id="Skin_3"><polygon points="6.913 0 6.913 7.172 3.087 7.172 3.087 0 0 0 0 10 10 10 10 0 6.913 0" style="fill:#007818"/><polygon points="6.913 7.172 6.913 0 5.956 0 5.956 3.586 4.044 3.586 4.044 0 3.087 0 3.087 7.172 6.913 7.172" style="fill:#53ab11"/><rect x="4.04371" width="1.91257" height="3.58607" style="fill:#ab3a11"/><rect id="Container-3" data-name="Container" width="10" height="10" style="fill:none"/></g><g id="Skin_4"><polygon points="6.913 0 6.913 7.172 3.087 7.172 3.087 0 0 0 0 10 10 10 10 0 6.913 0" style="fill:#a20004"/><polygon points="6.913 7.172 6.913 0 5.956 0 5.956 3.586 4.044 3.586 4.044 0 3.087 0 3.087 7.172 6.913 7.172" style="fill:#efd330"/><rect x="4.04371" width="1.91257" height="3.58607" style="fill:#23af43"/><rect id="Container-4" data-name="Container" width="10" height="10" style="fill:none"/></g><g id="Skin_5"><polygon points="6.913 0 6.913 7.172 3.087 7.172 3.087 0 0 0 0 10 10 10 10 0 6.913 0" style="fill:#53adcc"/><polygon points="6.913 7.172 6.913 0 5.956 0 5.956 3.586 4.044 3.586 4.044 0 3.087 0 3.087 7.172 6.913 7.172" style="fill:#1c8651"/><rect x="4.04371" width="1.91257" height="3.58607" style="fill:#c77643"/><rect id="Container-5" data-name="Container" width="10" height="10" style="fill:none"/></g><g id="Skin_6"><polygon points="6.913 0 6.913 7.172 3.087 7.172 3.087 0 0 0 0 10 10 10 10 0 6.913 0" style="fill:#a2182d"/><polygon points="6.913 7.172 6.913 0 5.956 0 5.956 3.586 4.044 3.586 4.044 0 3.087 0 3.087 7.172 6.913 7.172" style="fill:#3c2138"/><rect x="4.04371" width="1.91257" height="3.58607" style="fill:#0ad5b4"/><rect id="Container-6" data-name="Container" width="10" height="10" style="fill:none"/></g><g id="Skin_7"><polygon points="6.913 0 6.913 7.172 3.087 7.172 3.087 0 0 0 0 10 10 10 10 0 6.913 0" style="fill:#b6bd00"/><polygon points="6.913 7.172 6.913 0 5.956 0 5.956 3.586 4.044 3.586 4.044 0 3.087 0 3.087 7.172 6.913 7.172" style="fill:#574d23"/><rect x="4.04371" width="1.91257" height="3.58607" style="fill:#f0c618"/><rect id="Container-7" data-name="Container" width="10" height="10" style="fill:none"/></g><g id="Skin_8"><polygon points="6.913 0 6.913 7.172 3.087 7.172 3.087 0 0 0 0 10 10 10 10 0 6.913 0" style="fill:#00736b"/><polygon points="6.913 7.172 6.913 0 5.956 0 5.956 3.586 4.044 3.586 4.044 0 3.087 0 3.087 7.172 6.913 7.172" style="fill:#80351a"/><rect x="4.04371" width="1.91257" height="3.58607" style="fill:#a6c013"/><rect id="Container-8" data-name="Container" width="10" height="10" style="fill:none"/></g></svg>
-->
<svg xmlns="http://www.w3.org/2000/svg" viewBox="0 0 10 10"><title>GameObject</title><g id="Skin_8"><rect x="4.04371" width="1.91257" height="3.58607" style="fill:#a6c013"/></g></svg>