<!--<svg id="Skins2" xmlns="http://www.w3.org/2000/svg" viewBox="0 0 1920 1080"><title>GameObject</title><g id="Skin_1"><polygon points="300.566 459.751 300.566 678.501 183.9 678.501 183.9 459.751 89.733 459.751 89.733 764.751 394.733 764.751 394.733 459.751 300.566 459.751" style="fill:#006915"/><polygon points="300.566 678.501 300.566 459.751 271.4 459.751 271.4 569.126 213.066 569.126 213.066 459.751 183.9 459.751 183.9 678.501 300.566 678.501" style="fill:#76281d"/><rect x="213.06646" y="459.7513" width="58.3335" height="109.375" style="fill:#cf7453"/><rect id="Container" x="89.73321" y="459.7513" width="305" height="305" style="fill:none"/></g><g id="Skin_2"><polygon points="664.566 459.751 664.566 678.501 547.9 678.501 547.9 459.751 453.733 459.751 453.733 764.751 758.733 764.751 758.733 459.751 664.566 459.751" style="fill:#45002a"/><polygon points="664.566 678.501 664.566 459.751 635.4 459.751 635.4 569.126 577.066 569.126 577.066 459.751 547.9 459.751 547.9 678.501 664.566 678.501" style="fill:#926c1d"/><rect x="577.06646" y="459.7513" width="58.3335" height="109.375" style="fill:#0f1592"/><rect id="Container-2" data-name="Container" x="453.73321" y="459.7513" width="305" height="305" style="fill:none"/></g><g id="Skin_3"><polygon points="1028.566 459.751 1028.566 678.501 911.9 678.501 911.9 459.751 817.733 459.751 817.733 764.751 1122.733 764.751 1122.733 459.751 1028.566 459.751" style="fill:#007818"/><polygon points="1028.566 678.501 1028.566 459.751 999.4 459.751 999.4 569.126 941.066 569.126 941.066 459.751 911.9 459.751 911.9 678.501 1028.566 678.501" style="fill:#53ab11"/><rect x="941.06646" y="459.7513" width="58.3335" height="109.375" style="fill:#ab3a11"/><rect id="Container-3" data-name="Container" x="817.73321" y="459.7513" width="305" height="305" style="fill:none"/></g><g id="Skin_4"><polygon points="1392.566 459.751 1392.566 678.501 1275.9 678.501 1275.9 459.751 1181.733 459.751 1181.733 764.751 1486.733 764.751 1486.733 459.751 1392.566 459.751" style="fill:#a20004"/><polygon points="1392.566 678.501 1392.566 459.751 1363.4 459.751 1363.4 569.126 1305.066 569.126 1305.066 459.751 1275.9 459.751 1275.9 678.501 1392.566 678.501" style="fill:#efd330"/><rect x="1305.06646" y="459.7513" width="58.3335" height="109.375" style="fill:#23af43"/><rect id="Container-4" data-name="Container" x="1181.73321" y="459.7513" width="305" height="305" style="fill:none"/></g><g id="Skin_5"><polygon points="300.566 102.125 300.566 320.875 183.9 320.875 183.9 102.125 89.733 102.125 89.733 407.125 394.733 407.125 394.733 102.125 300.566 102.125" style="fill:#53adcc"/><polygon points="300.566 320.875 300.566 102.125 271.4 102.125 271.4 211.5 213.066 211.5 213.066 102.125 183.9 102.125 183.9 320.875 300.566 320.875" style="fill:#1c8651"/><rect x="213.06646" y="102.125" width="58.3335" height="109.375" style="fill:#c77643"/><rect id="Container-5" data-name="Container" x="89.73321" y="102.125" width="305" height="305" style="fill:none"/></g><g id="Skin_6"><polygon points="664.566 102.125 664.566 320.875 547.9 320.875 547.9 102.125 453.733 102.125 453.733 407.125 758.733 407.125 758.733 102.125 664.566 102.125" style="fill:#a2182d"/><polygon points="664.566 320.875 664.566 102.125 635.4 102.125 635.4 211.5 577.066 211.5 577.066 102.125 547.9 102.125 547.9 320.875 664.566 320.875" style="fill:#3c2138"/><rect x="577.06646" y="102.125" width="58.3335" height="109.375" style="fill:#0ad5b4"/><rect id="Container-6" data-name="Container" x="453.73321" y="102.125" width="305" height="305" style="fill:none"/></g><g id="Skin_7"><polygon points="1028.566 102.125 1028.566 320.875 911.9 320.875 911.9 102.125 817.733 102.125 817.733 407.125 1122.733 407.125 1122.733 102.125 1028.566 102.125" style="fill:#b6bd00"/><polygon points="1028.566 320.875 1028.566 102.125 999.4 102.125 999.4 211.5 941.066 211.5 941.066 102.125 911.9 102.125 911.9 320.875 1028.566 320.875" style="fill:#574d23"/><rect x="941.06646" y="102.125" width="58.3335" height="109.375" style="fill:#f0c618"/><rect id="Container-7" data-name="Container" x="817.73321" y="102.125" width="305" height="305" style="fill:none"/></g><g id="Skin_8"><polygon points="1392.566 102.125 1392.566 320.875 1275.9 320.875 1275.9 102.125 1181.733 102.125 1181.733 407.125 1486.733 407.125 1486.733 102.125 1392.566 102.125" style="fill:#00736b"/><polygon points="1392.566 320.875 1392.566 102.125 1363.4 102.125 1363.4 211.5 1305.066 211.5 1305.066 102.125 1275.9 102.125 1275.9 320.875 1392.566 320.875" style="fill:#80351a"/><rect x="1305.06646" y="102.125" width="58.3335" height="109.375" style="fill:#a6c013"/><rect id="Container-8" data-name="Container" x="1181.73321" y="102.125" width="305" height="305" style="fill:none"/></g></svg>-->
<!--<svg xmlns="http://www.w3.org/2000/svg" viewBox="0 0 305 305"><title>GameObject</title><g id="Skin_1"><polygon points="210.833 0 210.833 218.75 94.167 218.75 94.167 0 0 0 0 305 305 305 305 0 210.833 0" style="fill:#006915"/><polygon points="210.833 218.75 210.833 0 181.667 0 181.667 109.375 123.333 109.375 123.333 0 94.167 0 94.167 218.75 210.833 218.75" style="fill:#76281d"/><rect x="123.33325" width="58.3335" height="109.375" style="fill:#cf7453"/><rect id="Container" width="305" height="305" style="fill:none"/></g><!--<g id="Skin_2"><polygon points="210.833 0 210.833 218.75 94.167 218.75 94.167 0 0 0 0 305 305 305 305 0 210.833 0" style="fill:#45002a"/><polygon points="210.833 218.75 210.833 0 181.667 0 181.667 109.375 123.333 109.375 123.333 0 94.167 0 94.167 218.75 210.833 218.75" style="fill:#926c1d"/><rect x="123.33325" width="58.3335" height="109.375" style="fill:#0f1592"/><rect id="Container-2" data-name="Container" width="305" height="305" style="fill:none"/></g><g id="Skin_3"><polygon points="210.833 0 210.833 218.75 94.167 218.75 94.167 0 0 0 0 305 305 305 305 0 210.833 0" style="fill:#007818"/><polygon points="210.833 218.75 210.833 0 181.667 0 181.667 109.375 123.333 109.375 123.333 0 94.167 0 94.167 218.75 210.833 218.75" style="fill:#53ab11"/><rect x="123.33325" width="58.3335" height="109.375" style="fill:#ab3a11"/><rect id="Container-3" data-name="Container" width="305" height="305" style="fill:none"/></g><g id="Skin_4"><polygon points="210.833 0 210.833 218.75 94.167 218.75 94.167 0 0 0 0 305 305 305 305 0 210.833 0" style="fill:#a20004"/><polygon points="210.833 218.75 210.833 0 181.667 0 181.667 109.375 123.333 109.375 123.333 0 94.167 0 94.167 218.75 210.833 218.75" style="fill:#efd330"/><rect x="123.33325" width="58.3335" height="109.375" style="fill:#23af43"/><rect id="Container-4" data-name="Container" width="305" height="305" style="fill:none"/></g><g id="Skin_5"><polygon points="210.833 0 210.833 218.75 94.167 218.75 94.167 0 0 0 0 305 305 305 305 0 210.833 0" style="fill:#53adcc"/><polygon points="210.833 218.75 210.833 0 181.667 0 181.667 109.375 123.333 109.375 123.333 0 94.167 0 94.167 218.75 210.833 218.75" style="fill:#1c8651"/><rect x="123.33325" width="58.3335" height="109.375" style="fill:#c77643"/><rect id="Container-5" data-name="Container" width="305" height="305" style="fill:none"/></g><g id="Skin_6"><polygon points="210.833 0 210.833 218.75 94.167 218.75 94.167 0 0 0 0 305 305 305 305 0 210.833 0" style="fill:#a2182d"/><polygon points="210.833 218.75 210.833 0 181.667 0 181.667 109.375 123.333 109.375 123.333 0 94.167 0 94.167 218.75 210.833 218.75" style="fill:#3c2138"/><rect x="123.33325" width="58.3335" height="109.375" style="fill:#0ad5b4"/><rect id="Container-6" data-name="Container" width="305" height="305" style="fill:none"/></g><g id="Skin_7"><polygon points="210.833 0 210.833 218.75 94.167 218.75 94.167 0 0 0 0 305 305 305 305 0 210.833 0" style="fill:#b6bd00"/><polygon points="210.833 218.75 210.833 0 181.667 0 181.667 109.375 123.333 109.375 123.333 0 94.167 0 94.167 218.75 210.833 218.75" style="fill:#574d23"/><rect x="123.33325" width="58.3335" height="109.375" style="fill:#f0c618"/><rect id="Container-7" data-name="Container" width="305" height="305" style="fill:none"/></g><g id="Skin_8"><polygon points="210.833 0 210.833 218.75 94.167 218.75 94.167 0 0 0 0 305 305 305 305 0 210.833 0" style="fill:#00736b"/><polygon points="210.833 218.75 210.833 0 181.667 0 181.667 109.375 123.333 109.375 123.333 0 94.167 0 94.167 218.75 210.833 218.75" style="fill:#80351a"/><rect x="123.33325" width="58.3335" height="109.375" style="fill:#a6c013"/><rect id="Container-8" data-name="Container" width="305" height="305" style="fill:none"/></g>--><!--</svg>-->
<!--<svg xmlns="http://www.w3.org/2000/svg" viewBox="0 0 10 10"><title>GameObject</title><g id="Skin_1"><polygon points="6.913 0 6.913 7.172 3.087 7.172 3.087 0 0 0 0 10 10 10 10 0 6.913 0" style="fill:#006915"/><polygon points="6.913 7.172 6.913 0 5.956 0 5.956 3.586 4.044 3.586 4.044 0 3.087 0 3.087 7.172 6.913 7.172" style="fill:#76281d"/><rect x="4.04371" width="1.91257" height="3.58607" style="fill:#cf7453"/><rect id="Container" width="10" height="10" style="fill:none"/></g><g id="Skin_2"><polygon points="6.913 0 6.913 7.172 3.087 7.172 3.087 0 0 0 0 10 10 10 10 0 6.913 0" style="fill:#45002a"/><polygon points="6.913 7.172 6.913 0 5.956 0 5.956 3.586 4.044 3.586 4.044 0 3.087 0 3.087 7.172 6.913 7.172" style="fill:#926c1d"/><rect x="4.04371" width="1.91257" height="3.58607" style="fill:#0f1592"/><rect id="Container-2" data-name="Container" width="10" height="10" style="fill:none"/></g><g id="Skin_3"><polygon points="6.913 0 6.913 7.172 3.087 7.172 3.087 0 0 0 0 10 10 10 10 0 6.913 0" style="fill:#007818"/><polygon points="6.913 7.172 6.913 0 5.956 0 5.956 3.586 4.044 3.586 4.044 0 3.087 0 3.087 7.172 6.913 7.172" style="fill:#53ab11"/><rect x="4.04371" width="1.91257" height="3.58607" style="fill:#ab3a11"/><rect id="Container-3" data-name="Container" width="10" height="10" style="fill:none"/></g><g id="Skin_4"><polygon points="6.913 0 6.913 7.172 3.087 7.172 3.087 0 0 0 0 10 10 10 10 0 6.913 0" style="fill:#a20004"/><polygon points="6.913 7.172 6.913 0 5.956 0 5.956 3.586 4.044 3.586 4.044 0 3.087 0 3.087 7.172 6.913 7.172" style="fill:#efd330"/><rect x="4.04371" width="1.91257" height="3.58607" style="fill:#23af43"/><rect id="Container-4" data-name="Container" width="10" height="10" style="fill:none"/></g><g id="Skin_5"><polygon points="6.913 0 6.913 7.172 3.087 7.172 3.087 0 0 0 0 10 10 10 10 0 6.913 0" style="fill:#53adcc"/><polygon points="6.913 7.172 6.913 0 5.956 0 5.956 3.586 4.044 3.586 4.044 0 3.087 0 3.087 7.172 6.913 7.172" style="fill:#1c8651"/><rect x="4.04371" width="1.91257" height="3.58607" style="fill:#c77643"/><rect id="Container-5" data-name="Container" width="10" height="10" style="fill:none"/></g><g id="Skin_6"><polygon points="6.913 0 6.913 7.172 3.087 7.172 3.087 0 0 0 0 10 10 10 10 0 6.913 0" style="fill:#a2182d"/><polygon points="6.913 7.172 6.913 0 5.956 0 5.956 3.586 4.044 3.586 4.044 0 3.087 0 3.087 7.172 6.913 7.172" style="fill:#3c2138"/><rect x="4.04371" width="1.91257" height="3.58607" style="fill:#0ad5b4"/><rect id="Container-6" data-name="Container" width="10" height="10" style="fill:none"/></g><g id="Skin_7"><polygon points="6.913 0 6.913 7.172 3.087 7.172 3.087 0 0 0 0 10 10 10 10 0 6.913 0" style="fill:#b6bd00"/><polygon points="6.913 7.172 6.913 0 5.956 0 5.956 3.586 4.044 3.586 4.044 0 3.087 0 3.087 7.172 6.913 7.172" style="fill:#574d23"/><rect x="4.04371" width="1.91257" height="3.58607" style="fill:#f0c618"/><rect id="Container-7" data-name="Container" width="10" height="10" style="fill:none"/></g><g id="Skin_8"><polygon points="6.913 0 6.913 7.172 3.087 7.172 3.087 0 0 0 0 10 10 10 10 0 6.913 0" style="fill:#00736b"/><polygon points="6.913 7.172 6.913 0 5.956 0 5.956 3.586 4.044 3.586 4.044 0 3.087 0 3.087 7.172 6.913 7.172" style="fill:#80351a"/><rect x="4.04371" width="1.91257" height="3.58607" style="fill:#a6c013"/><rect id="Container-8" data-name="Container" width="10" height="10" style="fill:none"/></g></svg>-->
<svg xmlns="http://www.w3.org/2000/svg" viewBox="0 0 10 10"><title>GameObject</title><g id="Skin_8"><polygon points="6.913 0 6.913 7.172 3.087 7.172 3.087 0 0 0 0 10 10 10 10 0 6.913 0" style="fill:#00736b"/><polygon points="6.913 7.172 6.913 0 5.956 0 5.956 3.586 4.044 3.586 4.044 0 3.087 0 3.087 7.172 6.913 7.172" style="fill:#80351a"/><rect x="4.04371" width="1.91257" height="3.58607" style="fill:#a6c013"/><rect id="Container" width="10" height="10" style="fill:none"/></g></svg>